#!OML:ASF H:\Terrain\Patient Classification 1\Walking\liu\liu.ASF
:FULLY-SPECIFIED
:DEGREES
238
root 8.97391 17.1568 22.5476 9.17838 -0.0402291 -2.58077
lowerback -4.15771 0.4473 -2.4038
upperback -1.51422 0.654071 3.74207
thorax 0.701333 0.341794 5.25276
lowerneck -19.6865 -3.51785 -12.516
upperneck 22.8637 -4.03459 11.4522
head 11.1595 -1.54089 5.72964
rclavicle -7.95139e-015 2.38542e-015
rhumerus -33.5542 5.55947 -82.9305
rradius 26.7797
rwrist -9.45553
rhand -28.2122 -27.4181
rfingers 7.12502
rthumb -1.59085 -57.392
lclavicle -7.95139e-015 2.38542e-015
lhumerus -38.3371 -23.2181 101.859
lradius 29.2559
lwrist 8.2977
lhand -15.9845 -22.0479
lfingers 7.12502
lthumb 10.2152 7.68406
rfemur -17.622 2.93543 28.5168
rtibia 33.1567
rfoot -20.6851 1.64725
rtoes -21.0163
lfemur -34.1776 9.38005 -20.692
ltibia 63.7001
lfoot -16.4197 13.5052
ltoes -10.9981
239
root 8.99795 17.166 22.7753 8.9847 -0.053889 -2.64231
lowerback -3.89592 0.481817 -2.06811
upperback -1.25712 0.682222 3.6043
thorax 0.822966 0.348101 4.91629
lowerneck -20.9377 -3.56332 -11.7276
upperneck 23.47 -4.04758 10.7018
head 11.5992 -1.54087 5.33504
rclavicle 7.15625e-015 4.05521e-014
rhumerus -32.5023 7.40998 -83.9926
rradius 28.5361
rwrist -10.3683
rhand -25.9748 -31.3947
rfingers 7.12502
rthumb 0.570049 -61.3737
lclavicle 7.15625e-015 4.05521e-014
lhumerus -39.1939 -22.4891 101.272
lradius 29.1207
lwrist 8.30257
lhand -16.0709 -22.2134
lfingers 7.12502
lthumb 10.1318 7.52268
rfemur -16.0868 2.49674 28.5222
rtibia 32.4787
rfoot -20.8384 1.85248
rtoes -19.1646
lfemur -35.1132 8.82285 -20.791
ltibia 61.7896
lfoot -17.3743 13.6896
ltoes -8.67689
240
root 9.01814 17.1882 23.011 8.8854 -0.208716 -2.70439
lowerback -4.1681 0.55697 -1.81942
upperback -0.591548 0.76107 3.49839
thorax 1.65771 0.362087 4.67876
lowerneck -21.7603 -3.60808 -11.915
upperneck 22.8997 -4.0613 11.2434
head 11.5629 -1.47138 5.55805
rclavicle 6.06293e-015 9.54166e-015
rhumerus -30.3641 9.74048 -84.9213
rradius 29.646
rwrist -11.6149
rhand -26.8575 -29.1063
rfingers 7.12502
rthumb -0.282478 -59.0859
lclavicle 6.06293e-015 9.54166e-015
lhumerus -39.0973 -21.7909 100.367
lradius 28.8091
lwrist 8.21237
lhand -15.8292 -22.3116
lfingers 7.12502
lthumb 10.3649 7.41293
rfemur -14.5549 2.21954 28.4996
rtibia 31.7925
rfoot -20.6553 2.05426
rtoes -17.9912
lfemur -36.0869 8.38555 -20.8214
ltibia 59.7258
lfoot -17.4662 13.5889
ltoes -6.36176
241
root 9.02737 17.2013 23.2478 8.94806 -0.502776 -2.6335
lowerback -4.17329 0.633442 -1.84632
upperback -0.873116 0.871909 3.37331
thorax 1.3617 0.427255 4.56584
lowerneck -21.1846 -3.44819 -11.3792
upperneck 23.1365 -3.97723 10.7929
head 11.505 -1.45686 5.30895
rclavicle 4.87022e-015 -8.74653e-015
rhumerus -29.8729 12.4192 -86.0894
rradius 30.4755
rwrist -13.1036
rhand -27.459 -28.0367
rfingers 7.12502
rthumb -0.863377 -58.0147
lclavicle 4.87022e-015 -8.74653e-015
lhumerus -40.8983 -20.5942 100.01
lradius 28.5389
lwrist 7.83186
lhand -15.8004 -22.7664
lfingers 7.12502
lthumb 10.3927 6.95681
rfemur -13.2608 2.23846 28.4166
rtibia 30.9674
rfoot -20.409 1.91397
rtoes -19.0491
lfemur -37.108 8.12994 -20.9793
ltibia 57.4467
lfoot -17.6538 13.5699
ltoes -5.33223
242
root 9.03074 17.1934 23.4655 8.96288 -0.735926 -2.79514
lowerback -3.77693 0.864338 -1.69844
upperback -0.913555 1.17503 3.34824
thorax 1.07369 0.58523 4.46137
lowerneck -21.9501 -3.55506 -11.1698
upperneck 23.6739 -4.07921 10.5237
head 11.8629 -1.5027 5.17985
rclavicle -1.21259e-014 -7.15625e-015
rhumerus -29.0406 14.0525 -86.6017
rradius 31.8973
rwrist -13.9625
rhand -27.5009 -28.6564
rfingers 7.12502
rthumb -0.903894 -58.6342
lclavicle -1.21259e-014 -7.15625e-015
lhumerus -42.0219 -20.0512 99.7162
lradius 28.1791
lwrist 7.65088
lhand -15.7235 -23.0061
lfingers 7.12502
lthumb 10.4669 6.71331
rfemur -11.998 2.70495 28.6541
rtibia 29.9866
rfoot -20.2908 1.54558
rtoes -19.2146
lfemur -38.0658 7.82109 -20.7681
ltibia 55.0011
lfoot -18.4135 13.5388
ltoes -5.69979
243
root 9.03768 17.206 23.6913 8.89039 -0.992912 -3.07971
lowerback -3.27008 0.994547 -1.43634
upperback -1.77695 1.35819 3.46484
thorax -0.110821 0.708338 4.41827
lowerneck -19.0365 -3.22752 -11.5558
upperneck 23.2139 -3.80619 10.6356
head 11.0909 -1.46709 5.29389
rclavicle 6.85807e-015 -1.98785e-014
rhumerus -30.3593 15.6082 -87.3414
rradius 33.8062
rwrist -14.437
rhand -28.6756 -24.0013
rfingers 7.12502
rthumb -2.03845 -53.9713
lclavicle 6.85807e-015 -1.98785e-014
lhumerus -45.1231 -18.8427 100.026
lradius 28.0924
lwrist 7.56702
lhand -15.6164 -22.7875
lfingers 7.12502
lthumb 10.5702 6.92673
rfemur -10.5049 3.10438 28.9773
rtibia 28.9124
rfoot -20.2689 1.3839
rtoes -18.8698
lfemur -38.8675 7.51865 -20.333
ltibia 52.3768
lfoot -18.5701 13.4807
ltoes -7.38639
